<?xml version="1.0" encoding="UTF-8"?>
<svg id="Layer_2" data-name="Layer 2" xmlns="http://www.w3.org/2000/svg" viewBox="0 0 48 48">
  <defs>
    <style>
      .cls-1 {
        fill: #2e80a8;
      }

      .cls-2 {
        fill: #fff;
      }
    </style>
  </defs>
  <g id="Instagram">
    <g>
      <path id="light_blue" class="cls-1" d="M48,24c0,13.25-10.75,24-24,24S0,37.25,0,24,10.75,0,24,0s24,10.74,24,24Z"/>
      <g id="picture">
        <path class="cls-2" d="M33.2,9H14.8c-3.2,0-5.8,2.6-5.8,5.8v18.41c0,3.2,2.6,5.8,5.8,5.8h18.4c3.2,0,5.8-2.6,5.8-5.8V14.8c0-3.2-2.6-5.8-5.8-5.8Zm1.66,3.46h.66s0,.66,0,.66v4.42l-5.07,.02-.02-5.08h4.42Zm-15.15,8.45c.96-1.33,2.52-2.2,4.28-2.2s3.32,.87,4.28,2.2c.62,.87,1,1.93,1,3.08,0,2.91-2.37,5.28-5.28,5.28s-5.28-2.37-5.28-5.28c0-1.15,.38-2.21,1-3.08Zm16.36,12.28c0,1.59-1.29,2.88-2.88,2.88H14.8c-1.59,0-2.88-1.29-2.88-2.88v-12.28h4.48c-.39,.95-.6,1.99-.6,3.08,0,4.52,3.68,8.2,8.2,8.2s8.2-3.68,8.2-8.2c0-1.09-.22-2.13-.61-3.08h4.48v12.28Z"/>
      </g>
    </g>
  </g>
</svg>