<?xml version="1.0" encoding="UTF-8"?>
<svg id="Layer_1" data-name="Layer 1" xmlns="http://www.w3.org/2000/svg" viewBox="0 0 319.78 216.95">
  <defs>
    <style>
      .cls-1 {
        fill: #231f20;
      }
    </style>
  </defs>
  <g>
    <path class="cls-1" d="M88.32,125.75c0,.52-1.22,.94-3.66,1.26-2.44,.32-4.89,.48-7.35,.48s-4.04-.14-4.74-.42c-.7-.28-1.05-.72-1.05-1.32v-38.58c0-1.04,1.31-1.78,3.93-2.22,2.62-.44,5.93-.66,9.93-.66s6.59,.01,7.77,.03c1.18,.02,2.57,.09,4.17,.21,1.6,.12,2.87,.32,3.81,.6,.94,.28,1.98,.64,3.12,1.08,1.14,.44,2.03,1.01,2.67,1.71,.64,.7,1.26,1.53,1.86,2.49,1.08,1.72,1.62,4.17,1.62,7.35s-.53,5.86-1.59,8.04c-1.06,2.18-2.47,3.83-4.23,4.95,4.6,7.24,6.9,11.84,6.9,13.8s-3.94,2.94-11.82,2.94c-2.28,0-3.86-.1-4.74-.3-.88-.2-1.44-.64-1.68-1.32l-3.9-12.36-1.02-.06v12.3Zm0-21.54h1.56c2.32,0,3.48-1.8,3.48-5.4,0-1.84-.31-3.14-.93-3.9-.62-.76-1.33-1.14-2.13-1.14h-1.98v10.44Z"/>
    <path class="cls-1" d="M136.26,127.49h-13.14c-2,0-3.34-.14-4.02-.42-.68-.28-1.02-.72-1.02-1.32v-38.58c0-1.92,5.78-2.88,17.34-2.88,6.64,0,11.22,.64,13.74,1.92,2.56,1.32,4.2,3,4.92,5.04,.4,1.2,.6,2.6,.6,4.2,0,3.12-.53,5.46-1.59,7.02-1.06,1.56-2.21,2.44-3.45,2.64,1.88,.4,3.44,1.32,4.68,2.76,1.24,1.44,1.86,3.88,1.86,7.32,0,4-1.22,6.96-3.66,8.88-2.12,1.68-5.36,2.74-9.72,3.18-1.84,.16-4.02,.24-6.54,.24Zm.06-26.16c2.04,0,3.06-1.36,3.06-4.08,0-1.36-.27-2.37-.81-3.03s-1.15-.99-1.83-.99h-1.92v8.1h1.5Zm-1.5,17.22h1.5c2.04,0,3.06-1.36,3.06-4.08,0-1.36-.27-2.37-.81-3.03s-1.15-.99-1.83-.99h-1.92v8.1Z"/>
    <path class="cls-1" d="M177.06,127.1c-2.44,.26-4.89,.39-7.35,.39s-4.03-.11-4.71-.33c-.68-.22-1.02-.59-1.02-1.11v-37.32c0-.88,1.16-1.75,3.48-2.61,2.32-.86,4.92-1.29,7.8-1.29,2.56,0,4.24,.54,5.04,1.62,.28,.4,.42,.8,.42,1.2v38.4c0,.44-1.22,.79-3.66,1.05Z"/>
    <path class="cls-1" d="M210.92,127.1c-2.46,.26-4.92,.39-7.38,.39s-4.02-.11-4.68-.33c-.66-.22-.99-.59-.99-1.11v-25.8h-8.34c-.44,0-.82-.56-1.14-1.68-.32-1.12-.48-2.79-.48-5.01s.24-4.22,.72-6c.48-1.78,1.12-2.67,1.92-2.67h32.46c.6,0,1.01,.56,1.23,1.68,.22,1.12,.33,2.74,.33,4.86s-.22,4.12-.66,6c-.44,1.88-1.04,2.82-1.8,2.82h-7.5v25.8c0,.44-1.23,.79-3.69,1.05Z"/>
    <path class="cls-1" d="M264.29,97.07c0,.72-1.06,2.38-3.18,4.98-2.12,2.6-5.3,6.12-9.54,10.56h12.66c.44,0,.81,.59,1.11,1.77s.45,2.84,.45,4.98-.25,4.03-.75,5.67c-.5,1.64-1.17,2.46-2.01,2.46h-29.22c-1.16,0-1.99-1.16-2.49-3.48-.5-2.32-.75-4.84-.75-7.56,0-.6,1.12-2.24,3.36-4.92,2.24-2.68,5.62-6.42,10.14-11.22h-11.64c-1.08,0-1.62-1.74-1.62-5.22,0-2.44,.26-4.75,.78-6.93,.52-2.18,1.18-3.27,1.98-3.27h27.66c2.04,0,3.06,4.06,3.06,12.18Z"/>
  </g>
  <path class="cls-1" d="M21.18,126.79c-3.32,0-6.17-.31-8.55-.93-2.38-.62-4.57-1.73-6.57-3.33-4.04-3.16-6.06-9.22-6.06-18.18,0-3.76,.55-7.04,1.65-9.84,1.1-2.8,2.63-5.02,4.59-6.66,3.84-3.2,8.82-4.8,14.94-4.8,3.16,0,5.91,.28,8.25,.84,2.34,.56,4.55,1.58,6.63,3.06,4.2,3.04,6.3,8.84,6.3,17.4,0,7.68-1.9,13.34-5.7,16.98-3.8,3.64-8.96,5.46-15.48,5.46Zm-1.98-10.29c.48,.58,1.14,.87,1.98,.87s1.5-.29,1.98-.87c.48-.58,.88-1.82,1.2-3.72,.32-1.9,.48-4.55,.48-7.95s-.16-6.02-.48-7.86c-.32-1.84-.72-3.04-1.2-3.6-.48-.56-1.14-.84-1.98-.84s-1.5,.28-1.98,.84c-.48,.56-.88,1.76-1.2,3.6-.32,1.84-.48,4.46-.48,7.86s.16,6.05,.48,7.95c.32,1.9,.72,3.14,1.2,3.72Z"/>
  <path class="cls-1" d="M264.6,109.71c.12,.33,.2,.67,.2,1,0,8.92-42.94,16.16-95.91,16.16s-95.91-7.23-95.91-16.16c0-.26,.04-.52,.12-.77-32.41,3.46-52.98,8.62-52.98,14.38,0,10.41,67.08,18.85,149.83,18.85s149.83-8.44,149.83-18.85c0-5.89-21.51-11.16-55.18-14.61Z"/>
  <path class="cls-1" d="M167.25,0C107.34,0,58.77,48.56,58.77,108.47s48.56,108.47,108.47,108.47,108.47-48.56,108.47-108.47S227.15,0,167.25,0Zm0,202.87c-52.85,0-95.69-42.26-95.69-94.4S114.4,14.07,167.25,14.07s95.69,42.26,95.69,94.4-42.84,94.4-95.69,94.4Z"/>
</svg>