<?xml version="1.0" encoding="UTF-8"?>
<svg id="Layer_2" data-name="Layer 2" xmlns="http://www.w3.org/2000/svg" viewBox="0 0 48 48">
  <defs>
    <style>
      .cls-1 {
        fill: #fff;
      }

      .cls-2 {
        fill: #f15f2a;
      }
    </style>
  </defs>
  <g id="Reddit">
    <g>
      <path id="orange" class="cls-2" d="M48,24c0,13.25-10.75,24-24,24S0,37.25,0,24,10.75,0,24,0s24,10.74,24,24Z"/>
      <g id="dude">
        <path class="cls-1" d="M22.4,19.45c0-.83-.7-1.51-1.56-1.51s-1.56,.68-1.56,1.51,.7,1.51,1.56,1.51,1.56-.68,1.56-1.51Z"/>
        <path class="cls-1" d="M27.34,17.93c-.86,0-1.56,.68-1.56,1.51s.7,1.51,1.56,1.51,1.56-.68,1.56-1.51-.7-1.51-1.56-1.51Z"/>
        <path class="cls-1" d="M29.59,11.01c0,1.11,.93,2,2.07,2s2.07-.9,2.07-2.01-.93-2.01-2.07-2.01c-.87,0-1.61,.52-1.92,1.25l-4.27-.99-1.77,4.89c-2.52,.05-4.81,.71-6.52,1.77-.46-.39-1.04-.61-1.65-.61-1.4,0-2.53,1.1-2.53,2.46,0,.84,.45,1.62,1.17,2.07-.04,.25-.07,.49-.07,.75,0,2.41,2.05,4.52,5.08,5.62-1.64,.98-2.69,2.45-2.69,4.1,0,1.81,1.25,3.48,3.35,4.47l.03-.06c.09,.39,.2,.76,.32,1.1h-.84c-.73,0-1.33,.23-1.76,.67-.8,.82-.74,2.09-.74,2.14l.02,.37h14.16v-.37c.01-.05,.05-1.36-.76-2.17-.42-.42-.97-.63-1.65-.63h-.85c.14-.39,.25-.81,.36-1.24l.06,.11c1.98-1,3.16-2.64,3.16-4.38,0-1.61-1-3.05-2.57-4.03,0-.02,0-.05,0-.07,3.03-1.1,5.09-3.21,5.09-5.62,0-.25-.03-.49-.07-.73,.74-.45,1.2-1.23,1.2-2.09,0-1.36-1.14-2.46-2.54-2.46-.62,0-1.2,.23-1.67,.62-1.65-1.03-3.84-1.68-6.26-1.77l1.44-3.98,3.6,.84Zm2.07-1.24c.7,0,1.27,.55,1.27,1.24s-.57,1.24-1.27,1.24-1.27-.55-1.27-1.24,.57-1.24,1.27-1.24Zm-17.86,8c0-.93,.78-1.69,1.74-1.69,.36,0,.69,.1,.98,.29-1,.75-1.73,1.66-2.11,2.66-.37-.32-.6-.77-.6-1.26Zm13.88,8.78c.1,.05,.2,.1,.3,.15-.05,7.11-.77,11.48-3.98,11.48-3.55,0-3.95-5.4-3.98-11.58,.05-.03,.12-.05,.17-.08,1.16,.32,2.44,.49,3.78,.49s2.55-.17,3.7-.47Zm-10.4,3.75c0-1.26,.75-2.4,1.95-3.22,.02,2.51,.11,4.82,.45,6.73-1.51-.87-2.4-2.15-2.4-3.51Zm.88,6.72c.28-.29,.67-.43,1.18-.43h1.16c.33,.68,.74,1.23,1.26,1.63h-4.1c.04-.34,.16-.85,.5-1.2Zm10.46-.43c.46,0,.81,.13,1.07,.39,.36,.36,.48,.88,.53,1.24h-4.03c.51-.4,.93-.95,1.26-1.63h1.18Zm1.93-6.29c0,1.31-.83,2.55-2.25,3.42,.35-1.91,.45-4.17,.47-6.51,1.1,.81,1.77,1.9,1.77,3.09Zm-6.57-4.06c-5.01,0-9.09-2.54-9.09-5.67s4.07-5.67,9.09-5.67,9.09,2.54,9.09,5.67-4.08,5.67-9.09,5.67Zm8.48-10.17c.96,0,1.74,.76,1.74,1.69,0,.5-.24,.97-.63,1.29-.37-1-1.1-1.91-2.1-2.66,.29-.2,.63-.31,1-.31Z"/>
        <path class="cls-1" d="M27.08,23s-.96,.92-3.12,.92-2.97-.87-2.99-.9c-.14-.16-.39-.18-.56-.04-.17,.14-.19,.38-.04,.54,.04,.05,1.06,1.17,3.6,1.17s3.64-1.1,3.69-1.15c.15-.15,.14-.39-.01-.54-.16-.15-.41-.15-.56,0Z"/>
      </g>
    </g>
  </g>
</svg>