<?xml version="1.0" encoding="UTF-8"?>
<svg id="Layer_2" data-name="Layer 2" xmlns="http://www.w3.org/2000/svg" viewBox="0 0 48 48">
  <defs>
    <style>
      .cls-1 {
        fill: #fff;
      }

      .cls-2 {
        fill: #0f4361;
      }
    </style>
  </defs>
  <g id="Tumblr">
    <g>
      <path id="dark_blue" class="cls-2" d="M48,24c0,13.26-10.75,24-24,24S0,37.26,0,24,10.75,0,24,0s24,10.75,24,24Z"/>
      <g id="t">
        <path class="cls-1" d="M19.31,34.96c.27,.72,.77,1.4,1.48,2.04,.71,.64,1.57,1.13,2.58,1.48,1.01,.34,1.78,.52,3.09,.52,1.15,0,2.23-.12,3.22-.37,.99-.24,2.11-.67,3.33-1.27v-4.73c-1.44,.99-2.88,1.48-4.33,1.48-.82,0-1.54-.2-2.18-.6-.48-.29-.92-.8-1.09-1.29-.18-.49-.15-1.5-.15-3.24v-7.69h6.63v-5.36h-6.63v-6.94h-4.08c-.18,1.55-.52,2.82-1.01,3.82-.49,1-1.13,1.86-1.93,2.58-.8,.71-2.11,1.26-3.23,1.65v4.25h3.89v10.52c0,1.37,.14,2.42,.41,3.14Z"/>
      </g>
    </g>
  </g>
</svg>