<?xml version="1.0" encoding="UTF-8"?>
<svg id="Layer_2" data-name="Layer 2" xmlns="http://www.w3.org/2000/svg" viewBox="0 0 48 48">
  <defs>
    <style>
      .cls-1 {
        fill: #fff;
      }

      .cls-2 {
        fill: #00ace3;
      }
    </style>
  </defs>
  <g id="Twitter">
    <g>
      <path id="blue" class="cls-2" d="M48,24c0,13.25-10.75,24-24,24S0,37.25,0,24,10.75,0,24,0s24,10.74,24,24Z"/>
      <g id="bird">
        <path class="cls-1" d="M38.17,12.44c-1.19,.7-2.51,1.2-3.91,1.47-1.12-1.18-2.72-1.91-4.49-1.91-3.4,0-6.15,2.71-6.15,6.06,0,.47,.05,.94,.16,1.38-5.12-.25-9.65-2.66-12.69-6.33-.53,.89-.83,1.94-.83,3.05,0,2.1,1.09,3.96,2.74,5.04-1.01-.03-1.96-.3-2.79-.76v.08c0,2.93,2.12,5.38,4.94,5.94-.52,.14-1.06,.21-1.62,.21-.4,0-.78-.04-1.16-.11,.79,2.41,3.06,4.16,5.75,4.21-2.11,1.62-4.76,2.59-7.65,2.59-.5,0-.99-.03-1.47-.08,2.73,1.72,5.96,2.72,9.44,2.72,11.32,0,17.51-9.23,17.51-17.24,0-.26,0-.52-.02-.78,1.2-.85,2.25-1.92,3.07-3.14-1.1,.48-2.29,.81-3.54,.95,1.27-.75,2.25-1.94,2.71-3.35Z"/>
      </g>
    </g>
  </g>
</svg>